<svg width="32" height="32" fill="none" xmlns="http://www.w3.org/2000/svg"><path d="M6.815 1.022a.963.963 0 0 0-.59.481c-.133.254-.18.455-.206.892C6.008 2.59 6 7.319 6 15.457c0 11.847.006 14.795.029 15.143.019.296.154.582.399.844.229.24.477.397.788.494l.168.054 4.531.006c4.453.005 4.539.003 4.984-.035.857-.074 1.306-.175 2.352-.527 2.093-.704 3.782-1.678 4.907-2.828.41-.418.624-.687.926-1.17.21-.332.435-.894.533-1.317a4.24 4.24 0 0 0 .067-1.257 4.543 4.543 0 0 0-.52-1.608 8.182 8.182 0 0 0-.54-.8 7.63 7.63 0 0 0-1.031-1.044c-.252-.204-.476-.38-.516-.409-.888-.618-1.447-.927-2.595-1.435-.24-.107-.916-.363-1.277-.483-.275-.094-.359-.13-.334-.15.004-.003.094-.053.199-.108 1.036-.552 2.05-1.365 2.906-2.334.282-.318.725-.916.964-1.296.586-.94 1.016-1.932 1.256-2.908.483-1.959.3-3.79-.527-5.321-.443-.82-1.226-1.656-1.772-1.898a1.491 1.491 0 0 0-1.046-.054 1.37 1.37 0 0 0-.693.512c-.034.052-.245.426-.468.83a1933.214 1933.214 0 0 1-3.662 6.598l-.433.782-.64 1.155-.535.965c-.229.41-.32.576-.391.706l-.147.267-.239.43c-.084.153-.195.351-.244.445-.109.193-.153.248-.197.235a3.514 3.514 0 0 0-.328-.021c-.163-.008-.327-.015-.363-.021a31.756 31.756 0 0 0-.878-.015 24.55 24.55 0 0 0-1.831.036c-.264.017-.266.011-.04-.159a10.692 10.692 0 0 0 2.55-2.81l.123-.199a10.046 10.046 0 0 0 1.321-4.05c.04-.364.034-1.644-.01-1.995-.154-1.26-.49-2.346-1.037-3.36-1.09-2.028-2.835-3.481-5.09-4.243-.271-.09-.307-.097-.502-.103a1.118 1.118 0 0 0-.302.021Zm9.364 20.459a3.758 3.758 0 0 1 1.598.53c.49.306.928.768 1.176 1.244.126.244.243.578.256.739.008.1.004.118-.027.13-.02.007-1.481.018-3.248.024-3.083.012-3.215.01-3.251-.023-.05-.046-.05-.16-.002-.439.097-.56.515-1.151 1.119-1.585.196-.14.628-.362.872-.446a3.782 3.782 0 0 1 1.507-.174Z" fill="#fff"/></svg>